<svg width="800" height="800" viewBox="0 0 800 800" fill="none" xmlns="http://www.w3.org/2000/svg">
  <rect width="800" height="800" rx="56" fill="#EEE5D7"/>
  <rect y="520" width="800" height="280" fill="#E1D1B7"/>
  <rect x="56" y="94" width="170" height="190" rx="12" fill="#F8F5EF"/>
  <rect x="248" y="118" width="150" height="136" rx="12" fill="#CDAE83"/>
  <rect x="430" y="104" width="256" height="196" rx="16" fill="#23313B"/>
  <path d="M470 180C505 160 540 214 580 194C620 174 635 155 664 164" stroke="#D5D9DC" stroke-width="8" stroke-linecap="round"/>
  <path d="M492 246C530 227 565 240 612 220C648 204 671 212 690 225" stroke="#CAD0D4" stroke-width="8" stroke-linecap="round"/>
  <rect x="620" y="58" width="118" height="190" rx="10" fill="#D6C39B"/>
  <rect x="110" y="390" width="150" height="76" rx="14" fill="#E7C9A1"/>
  <rect x="132" y="452" width="10" height="100" rx="5" fill="#434343"/>
  <rect x="228" y="452" width="10" height="100" rx="5" fill="#434343"/>
  <rect x="86" y="438" width="70" height="96" rx="18" fill="#503449"/>
  <rect x="320" y="422" width="150" height="76" rx="14" fill="#E7C9A1"/>
  <rect x="342" y="484" width="10" height="100" rx="5" fill="#434343"/>
  <rect x="438" y="484" width="10" height="100" rx="5" fill="#434343"/>
  <rect x="296" y="470" width="70" height="96" rx="18" fill="#503449"/>
  <rect x="536" y="400" width="150" height="76" rx="14" fill="#E7C9A1"/>
  <rect x="558" y="462" width="10" height="100" rx="5" fill="#434343"/>
  <rect x="654" y="462" width="10" height="100" rx="5" fill="#434343"/>
  <rect x="512" y="448" width="70" height="96" rx="18" fill="#503449"/>
  <rect x="180" y="582" width="168" height="82" rx="14" fill="#E7C9A1"/>
  <rect x="206" y="650" width="10" height="92" rx="5" fill="#434343"/>
  <rect x="312" y="650" width="10" height="92" rx="5" fill="#434343"/>
  <rect x="154" y="630" width="74" height="100" rx="18" fill="#503449"/>
  <rect x="420" y="596" width="168" height="82" rx="14" fill="#E7C9A1"/>
  <rect x="446" y="664" width="10" height="92" rx="5" fill="#434343"/>
  <rect x="552" y="664" width="10" height="92" rx="5" fill="#434343"/>
  <rect x="394" y="644" width="74" height="100" rx="18" fill="#503449"/>
</svg>
